<svg width="34" height="33" viewBox="0 0 34 33" fill="none" xmlns="http://www.w3.org/2000/svg">
<path d="M17.0433 0.333344C8.8882 0.332296 1.93634 6.24665 0.630651 14.2966C-0.675042 22.3465 4.05098 30.155 11.7883 32.7317C12.6217 32.8817 12.92 32.37 12.92 31.93C12.92 31.535 12.9067 30.4883 12.9017 29.0967C8.27665 30.0967 7.29999 26.8667 7.29999 26.8667C6.99551 25.8616 6.34095 24.9989 5.45499 24.435C3.95499 23.4033 5.56999 23.4267 5.56999 23.4267C6.63778 23.5731 7.57757 24.2058 8.11499 25.14C8.56988 25.9671 9.33625 26.5783 10.2438 26.8377C11.1514 27.0972 12.125 26.9834 12.9483 26.5217C13.0257 25.6784 13.4009 24.8901 14.0067 24.2983C10.3167 23.88 6.43665 22.4533 6.43665 16.0817C6.41617 14.4337 7.02815 12.8405 8.14665 11.63C7.64057 10.1955 7.70017 8.6221 8.31332 7.23001C8.31332 7.23001 9.70832 6.78168 12.8833 8.93168C15.6064 8.18502 18.4802 8.18502 21.2033 8.93168C24.38 6.78001 25.7733 7.23001 25.7733 7.23001C26.3893 8.62144 26.449 10.196 25.94 11.63C27.0626 12.8404 27.6741 14.4377 27.6467 16.0883C27.6467 22.4767 23.7633 23.88 20.06 24.2917C20.8589 25.1084 21.2686 26.2289 21.185 27.3683C21.185 29.5917 21.165 31.385 21.165 31.93C21.165 32.375 21.4617 32.8917 22.31 32.7283C30.0441 30.1473 34.7651 22.3383 33.4567 14.2905C32.1483 6.24276 25.1968 0.331478 17.0433 0.333344Z" fill="#2E3A59"/>
</svg>
