<svg width="34" height="34" viewBox="0 0 34 34" fill="none" xmlns="http://www.w3.org/2000/svg">
<path fill-rule="evenodd" clip-rule="evenodd" d="M27.4134 25.3287C27.2759 25.3318 27.1381 25.3333 27 25.3333C16.8748 25.3333 8.66665 17.1252 8.66665 6.99998C8.66665 6.86182 8.66818 6.724 8.67123 6.58653C5.62017 9.03085 3.66665 12.789 3.66665 16.9999C3.66665 24.3637 9.63618 30.3333 17 30.3333C21.2109 30.3333 24.969 28.3798 27.4134 25.3287ZM29.4435 21.802C28.6483 21.9322 27.832 22 27 22C18.7157 22 12 15.2843 12 6.99998C12 6.1679 12.0677 5.35164 12.198 4.55643C12.4182 3.21241 12.8171 1.9285 13.3693 0.729858C11.9337 1.04879 10.5679 1.55288 9.29802 2.21577C3.97023 4.99702 0.333313 10.5738 0.333313 16.9999C0.333313 26.2047 7.79523 33.6666 17 33.6666C23.4261 33.6666 29.0029 30.0297 31.7841 24.702C32.447 23.4321 32.9511 22.0662 33.27 20.6307C32.0714 21.1829 30.7875 21.5818 29.4435 21.802Z" fill="#2E3A59"/>
</svg>
